<svg width="20" height="21" viewBox="0 0 20 21" fill="none" xmlns="http://www.w3.org/2000/svg">
<path d="M13.9877 7.60291H5.97986C5.7102 7.60291 5.49158 7.82153 5.49158 8.09119V15.0176C5.49158 15.2873 5.7102 15.5059 5.97986 15.5059H6.59835V17.3685C6.59835 18.1762 7.25548 18.8334 8.06319 18.8334C8.87091 18.8334 9.52804 18.1762 9.52804 17.3685V15.5059H10.5046V17.3685C10.5046 18.1762 11.1617 18.8334 11.9694 18.8334C12.7772 18.8334 13.4343 18.1762 13.4343 17.3685V15.5059H13.9877C14.2573 15.5059 14.476 15.2873 14.476 15.0176V8.09119C14.476 7.82153 14.2573 7.60291 13.9877 7.60291Z" fill="white"/>
<path d="M16.4617 7.60291C15.654 7.60291 14.9968 8.26003 14.9968 9.06775V11.9649C14.9968 12.7726 15.654 13.4297 16.4617 13.4297C17.2694 13.4297 17.9265 12.7726 17.9265 11.9649V9.06775C17.9265 8.26003 17.2694 7.60291 16.4617 7.60291Z" fill="white"/>
<path d="M3.53845 7.60291C2.73074 7.60291 2.07361 8.26003 2.07361 9.06775V11.9649C2.07361 12.7726 2.73074 13.4297 3.53845 13.4297C4.34617 13.4297 5.0033 12.7726 5.0033 11.9649V9.06775C5.0033 8.26003 4.34617 7.60291 3.53845 7.60291Z" fill="white"/>
<path d="M14.3655 3.00022C14.5562 2.80956 14.5562 2.50041 14.3655 2.30972C14.1748 2.11903 13.8657 2.11903 13.675 2.30972L12.8126 3.17206C12.0398 2.54384 11.0551 2.16669 9.98376 2.16669C8.92908 2.16669 7.95828 2.53221 7.19096 3.14299L6.35769 2.30972C6.16703 2.11903 5.85785 2.11903 5.66716 2.30972C5.47647 2.50041 5.47647 2.80956 5.66716 3.00025L6.49695 3.83003C5.86873 4.60288 5.49158 5.58762 5.49158 6.65887C5.49158 6.92854 5.7102 7.14716 5.97986 7.14716H13.9877C14.2573 7.14716 14.476 6.92854 14.476 6.65887C14.476 5.60419 14.1104 4.63339 13.4996 3.86607L14.3655 3.00022Z" fill="white"/>
</svg>
