<svg width="20" height="21" viewBox="0 0 20 21" fill="none" xmlns="http://www.w3.org/2000/svg">
<path d="M13.2074 1.33331C13.2462 1.33331 13.285 1.33331 13.3259 1.33331C13.4211 2.50868 12.9725 3.38691 12.4272 4.0229C11.8922 4.6545 11.1596 5.26706 9.97476 5.17412C9.89571 4.01558 10.3451 3.20249 10.8896 2.56796C11.3946 1.97662 12.3204 1.45041 13.2074 1.33331Z" fill="white"/>
<path d="M16.7943 13.5671C16.7943 13.5788 16.7943 13.589 16.7943 13.6C16.4613 14.6085 15.9863 15.4728 15.4067 16.275C14.8775 17.0032 14.2291 17.9831 13.0713 17.9831C12.0708 17.9831 11.4063 17.3398 10.381 17.3222C9.29636 17.3047 8.69989 17.8602 7.70822 18C7.59478 18 7.48134 18 7.3701 18C6.6419 17.8946 6.05421 17.3179 5.62607 16.7982C4.36361 15.2628 3.38804 13.2794 3.20654 10.7414C3.20654 10.4925 3.20654 10.2444 3.20654 9.99559C3.28339 8.17911 4.16601 6.70221 5.33919 5.98645C5.95834 5.60589 6.80949 5.28167 7.75725 5.42658C8.16344 5.48952 8.5784 5.62857 8.94214 5.76616C9.28684 5.89863 9.71791 6.13356 10.1263 6.12112C10.4029 6.11307 10.6781 5.96889 10.9569 5.86716C11.7737 5.57222 12.5744 5.2341 13.6297 5.39291C14.898 5.58466 15.7982 6.1482 16.3544 7.01765C15.2815 7.70047 14.4333 8.72947 14.5782 10.4867C14.707 12.0829 15.635 13.0167 16.7943 13.5671Z" fill="white"/>
</svg>
