<svg width="36" height="36" viewBox="0 0 36 36" fill="none" xmlns="http://www.w3.org/2000/svg">
<path fill-rule="evenodd" clip-rule="evenodd" d="M16.5001 4.6875C14.6362 4.6875 13.1251 6.19854 13.1251 8.0625V9.5625C13.1251 10.1838 12.6215 10.6875 12.0001 10.6875C11.3788 10.6875 10.8751 10.1838 10.8751 9.5625V8.0625C10.8751 4.9559 13.3935 2.4375 16.5001 2.4375H19.5001C22.6067 2.4375 25.1251 4.9559 25.1251 8.0625V9.5625C25.1251 10.1838 24.6215 10.6875 24.0001 10.6875C23.3788 10.6875 22.8751 10.1838 22.8751 9.5625V8.0625C22.8751 6.19854 21.3641 4.6875 19.5001 4.6875H16.5001Z" fill="url(#paint0_linear_1_1088)"/>
<path d="M9 9.5625H27C30.3137 9.5625 33 12.2488 33 15.5625C33 15.5625 29.447 19.0395 20.4321 19.3913C20.3261 19.3954 20.234 19.3154 20.2155 19.211C20.029 18.1565 19.1081 17.3555 18 17.3555C16.9239 17.3555 16.0242 18.111 15.8024 19.1205C15.7797 19.2237 15.685 19.2997 15.5797 19.2918C6.54717 18.6172 3 15.5625 3 15.5625C3 12.2488 5.68629 9.5625 9 9.5625Z" fill="url(#paint1_linear_1_1088)"/>
<path d="M15.75 21.2942C15.75 21.1891 15.6669 21.1019 15.5622 21.0942C8.46944 20.5697 4.50795 18.7069 3 17.8314V27.5625C3 30.8762 5.68629 33.5625 9 33.5625H27C30.3137 33.5625 33 30.8762 33 27.5625V17.8941C31.4885 18.8845 27.5171 20.9597 20.4446 21.2507C20.337 21.2552 20.25 21.3435 20.25 21.4512V21.7055C20.25 22.9481 19.2426 23.9555 18 23.9555C16.7574 23.9555 15.75 22.9481 15.75 21.7055V21.2942Z" fill="url(#paint2_linear_1_1088)"/>
<path d="M16.8751 19.6875C16.8751 19.0662 17.3788 18.5625 18.0001 18.5625C18.6215 18.5625 19.1251 19.0662 19.1251 19.6875V21.6285C19.1251 22.2499 18.6215 22.7535 18.0001 22.7535C17.3788 22.7535 16.8751 22.2499 16.8751 21.6285V19.6875Z" fill="url(#paint3_linear_1_1088)"/>
<defs>
<linearGradient id="paint0_linear_1_1088" x1="18" y1="2.4375" x2="18" y2="33.5625" gradientUnits="userSpaceOnUse">
<stop offset="0.356721" stop-color="#F5F7F9"/>
<stop offset="1" stop-color="#F5F7F9" stop-opacity="0.7"/>
</linearGradient>
<linearGradient id="paint1_linear_1_1088" x1="18" y1="2.4375" x2="18" y2="33.5625" gradientUnits="userSpaceOnUse">
<stop offset="0.356721" stop-color="#F5F7F9"/>
<stop offset="1" stop-color="#F5F7F9" stop-opacity="0.7"/>
</linearGradient>
<linearGradient id="paint2_linear_1_1088" x1="18" y1="2.4375" x2="18" y2="33.5625" gradientUnits="userSpaceOnUse">
<stop offset="0.356721" stop-color="#F5F7F9"/>
<stop offset="1" stop-color="#F5F7F9" stop-opacity="0.7"/>
</linearGradient>
<linearGradient id="paint3_linear_1_1088" x1="18" y1="2.4375" x2="18" y2="33.5625" gradientUnits="userSpaceOnUse">
<stop offset="0.356721" stop-color="#F5F7F9"/>
<stop offset="1" stop-color="#F5F7F9" stop-opacity="0.7"/>
</linearGradient>
</defs>
</svg>
