<svg width="36" height="36" viewBox="0 0 36 36" fill="none" xmlns="http://www.w3.org/2000/svg">
<path fill-rule="evenodd" clip-rule="evenodd" d="M12.6094 5.8359L10.5 9H9C5.68629 9 3 11.6863 3 15V25.5C3 28.8137 5.68629 31.5 9 31.5H27C30.3137 31.5 33 28.8137 33 25.5V15C33 11.6863 30.3137 9 27 9H25.5L23.3906 5.8359C22.8342 5.0013 21.8975 4.5 20.8944 4.5H15.1056C14.1025 4.5 13.1658 5.0013 12.6094 5.8359ZM22.5 20.25C22.5 22.7353 20.4853 24.75 18 24.75C15.5147 24.75 13.5 22.7353 13.5 20.25C13.5 17.7647 15.5147 15.75 18 15.75C20.4853 15.75 22.5 17.7647 22.5 20.25ZM18 10.5C18.8284 10.5 19.5 9.82843 19.5 9C19.5 8.17157 18.8284 7.5 18 7.5C17.1716 7.5 16.5 8.17157 16.5 9C16.5 9.82843 17.1716 10.5 18 10.5Z" fill="url(#paint0_linear_1_737)"/>
<defs>
<linearGradient id="paint0_linear_1_737" x1="18" y1="4.5" x2="18" y2="31.5" gradientUnits="userSpaceOnUse">
<stop offset="0.356721" stop-color="#F5F7F9"/>
<stop offset="1" stop-color="#F5F7F9" stop-opacity="0.7"/>
</linearGradient>
</defs>
</svg>
