<svg width="782" height="890" viewBox="0 0 782 890" fill="none" xmlns="http://www.w3.org/2000/svg">
<g clip-path="url(#clip0_1_849)" filter="url(#filter0_d_1_849)">
<mask id="mask0_1_849" style="mask-type:alpha" maskUnits="userSpaceOnUse" x="32" y="80" width="670" height="730">
<path d="M32 80H702V754V810H646H32V80Z" fill="url(#paint0_linear_1_849)"/>
</mask>
<g mask="url(#mask0_1_849)">
<g filter="url(#filter1_d_1_849)">
<rect x="32" y="80" width="670" height="730" fill="white"/>
</g>
<path d="M-230.5 417.5C-230.5 417.5 201.757 678.604 373.706 660.774C466.482 651.154 562.957 579.295 650.467 471.37C737.977 363.444 823.713 211.666 914.332 180.604C1004.95 149.543 1100.46 239.198 1193.83 276.176C1287.2 313.154 1378.45 297.455 1466.29 197.855C1554.14 98.255 1638.59 -85.2461 1725.81 -200.372C1813.03 -315.498 1903.02 -362.249 1948.01 -385.625L1993 -409" stroke="url(#paint1_linear_1_849)" stroke-width="60"/>
</g>
</g>
<defs>
<filter id="filter0_d_1_849" x="-48" y="0" width="830" height="890" filterUnits="userSpaceOnUse" color-interpolation-filters="sRGB">
<feFlood flood-opacity="0" result="BackgroundImageFix"/>
<feColorMatrix in="SourceAlpha" type="matrix" values="0 0 0 0 0 0 0 0 0 0 0 0 0 0 0 0 0 0 127 0" result="hardAlpha"/>
<feOffset/>
<feGaussianBlur stdDeviation="40"/>
<feComposite in2="hardAlpha" operator="out"/>
<feColorMatrix type="matrix" values="0 0 0 0 0.109804 0 0 0 0 0.121569 0 0 0 0 0.141176 0 0 0 0.03 0"/>
<feBlend mode="normal" in2="BackgroundImageFix" result="effect1_dropShadow_1_849"/>
<feBlend mode="normal" in="SourceGraphic" in2="effect1_dropShadow_1_849" result="shape"/>
</filter>
<filter id="filter1_d_1_849" x="-48" y="0" width="830" height="890" filterUnits="userSpaceOnUse" color-interpolation-filters="sRGB">
<feFlood flood-opacity="0" result="BackgroundImageFix"/>
<feColorMatrix in="SourceAlpha" type="matrix" values="0 0 0 0 0 0 0 0 0 0 0 0 0 0 0 0 0 0 127 0" result="hardAlpha"/>
<feOffset/>
<feGaussianBlur stdDeviation="40"/>
<feComposite in2="hardAlpha" operator="out"/>
<feColorMatrix type="matrix" values="0 0 0 0 0.109804 0 0 0 0 0.121569 0 0 0 0 0.141176 0 0 0 0.03 0"/>
<feBlend mode="normal" in2="BackgroundImageFix" result="effect1_dropShadow_1_849"/>
<feBlend mode="normal" in="SourceGraphic" in2="effect1_dropShadow_1_849" result="shape"/>
</filter>
<linearGradient id="paint0_linear_1_849" x1="32" y1="80" x2="702" y2="810" gradientUnits="userSpaceOnUse">
<stop stop-color="#05D54B"/>
<stop offset="1" stop-color="#69AFBA"/>
</linearGradient>
<linearGradient id="paint1_linear_1_849" x1="1993.22" y1="-408.948" x2="-241.148" y2="551.172" gradientUnits="userSpaceOnUse">
<stop offset="0.159336" stop-color="#08D54E"/>
<stop offset="1" stop-color="#08D54E" stop-opacity="0.5"/>
</linearGradient>
<clipPath id="clip0_1_849">
<rect width="670" height="730" fill="white" transform="translate(32 80)"/>
</clipPath>
</defs>
</svg>
