<svg width="790" height="890" viewBox="0 0 790 890" fill="none" xmlns="http://www.w3.org/2000/svg">
<g clip-path="url(#clip0_1_854)" filter="url(#filter0_d_1_854)">
<rect x="702" y="762.104" width="48" height="48" rx="24" fill="white"/>
<path d="M728 790.104L732 786.104M732 786.104L728 782.104M732 786.104L720 786.104" stroke="#0D0F11" stroke-width="1.5" stroke-linecap="round" stroke-linejoin="round"/>
<g filter="url(#filter1_d_1_854)">
<rect x="80" y="80" width="670" height="730" fill="white"/>
</g>
<path d="M-825 296.092L-776.754 352.889C-728.509 409.686 -632.017 523.279 -537.344 591.919C-442.671 660.558 -349.817 684.243 -258.737 664.035C-167.658 643.828 -78.3543 579.726 9.17509 471.754C96.7044 363.781 182.459 211.937 273.099 180.862C363.739 149.787 459.263 239.481 552.656 276.475C646.049 313.47 737.311 297.764 825.177 198.12C913.043 98.4765 997.514 -85.1047 1084.75 -200.281C1171.99 -315.457 1262 -362.229 1307 -385.614L1352 -409" stroke="url(#paint0_linear_1_854)" stroke-width="60"/>
</g>
<defs>
<filter id="filter0_d_1_854" x="0" y="0" width="830" height="890" filterUnits="userSpaceOnUse" color-interpolation-filters="sRGB">
<feFlood flood-opacity="0" result="BackgroundImageFix"/>
<feColorMatrix in="SourceAlpha" type="matrix" values="0 0 0 0 0 0 0 0 0 0 0 0 0 0 0 0 0 0 127 0" result="hardAlpha"/>
<feOffset/>
<feGaussianBlur stdDeviation="40"/>
<feComposite in2="hardAlpha" operator="out"/>
<feColorMatrix type="matrix" values="0 0 0 0 0.109804 0 0 0 0 0.121569 0 0 0 0 0.141176 0 0 0 0.03 0"/>
<feBlend mode="normal" in2="BackgroundImageFix" result="effect1_dropShadow_1_854"/>
<feBlend mode="normal" in="SourceGraphic" in2="effect1_dropShadow_1_854" result="shape"/>
</filter>
<filter id="filter1_d_1_854" x="0" y="0" width="830" height="890" filterUnits="userSpaceOnUse" color-interpolation-filters="sRGB">
<feFlood flood-opacity="0" result="BackgroundImageFix"/>
<feColorMatrix in="SourceAlpha" type="matrix" values="0 0 0 0 0 0 0 0 0 0 0 0 0 0 0 0 0 0 127 0" result="hardAlpha"/>
<feOffset/>
<feGaussianBlur stdDeviation="40"/>
<feComposite in2="hardAlpha" operator="out"/>
<feColorMatrix type="matrix" values="0 0 0 0 0.109804 0 0 0 0 0.121569 0 0 0 0 0.141176 0 0 0 0.03 0"/>
<feBlend mode="normal" in2="BackgroundImageFix" result="effect1_dropShadow_1_854"/>
<feBlend mode="normal" in="SourceGraphic" in2="effect1_dropShadow_1_854" result="shape"/>
</filter>
<linearGradient id="paint0_linear_1_854" x1="1352.23" y1="-408.947" x2="-882.787" y2="551.242" gradientUnits="userSpaceOnUse">
<stop offset="0.159336" stop-color="#08D54E"/>
<stop offset="1" stop-color="#08D54E" stop-opacity="0.5"/>
</linearGradient>
<clipPath id="clip0_1_854">
<rect width="670" height="730" fill="white" transform="translate(80 80)"/>
</clipPath>
</defs>
</svg>
