<svg width="325" height="175" viewBox="0 0 325 175" fill="none" xmlns="http://www.w3.org/2000/svg">
<rect x="0.5" y="0.5" width="324" height="174" rx="39.5" stroke="#0D0F11" stroke-opacity="0.1"/>
<g opacity="0.5">
<path d="M193.411 102.856H196.114C196.114 103.588 195.868 104.238 195.459 104.806C195.049 105.213 194.476 105.456 193.903 105.375C193.248 105.375 192.674 105.131 192.183 104.725C191.61 104.156 191.364 103.1 191.364 101.556C191.364 100.581 191.446 99.2 192.183 98.3875C192.674 97.9 193.248 97.6562 193.903 97.6562C194.558 97.575 195.131 97.8188 195.622 98.3063C195.868 98.55 196.032 98.875 196.114 99.2812V99.4438H198.57V99.2812C198.488 98.3875 198.161 97.575 197.506 96.925C196.605 96.0313 195.295 95.5437 194.066 95.625C192.756 95.625 191.528 96.1125 190.545 97.0063C189.317 98.225 188.99 99.7688 188.99 101.638C188.99 103.263 189.153 104.969 190.464 106.35C191.364 107.244 192.593 107.731 193.903 107.65H193.985C195.049 107.65 196.032 107.244 196.769 106.431L196.932 107.406H198.57V100.906H193.575V102.856H193.411ZM182.93 98.875L181.538 102.938H184.322L182.93 98.875ZM184.24 95.7063L188.335 107.244H185.878L185.141 105.05H180.883L180.146 107.244H177.69L181.784 95.7063H184.24ZM235.5 83.5188V81.325H227.066V92.8625H235.5V90.6688H229.522V87.9062H234.845V85.7125H229.522V83.4375H235.5V83.5188ZM216.421 83.5188H219.778V92.8625H222.153V83.5188H225.51V81.325H216.421V83.5188ZM211.999 84.4938L210.607 88.5563H213.391L211.999 84.4938ZM213.227 81.325L217.322 92.8625H214.865L214.128 90.6688H209.87L209.133 92.8625H206.677L210.771 81.325H213.227ZM207.577 81.325H198.488V83.5188H201.845V92.8625H204.22V83.5188H207.577V81.325ZM193.329 93.1063C194.64 93.1875 196.032 92.7 197.014 91.8875C197.669 91.2375 197.997 90.3438 197.997 89.45C197.997 87.2563 196.277 86.2813 194.722 86.0375C194.394 86.0375 194.066 85.9563 193.657 85.9563C193.166 85.875 192.674 85.875 192.265 85.7938C191.692 85.7938 191.2 85.3063 191.282 84.7375C191.282 84.4125 191.364 84.0875 191.61 83.925C192.101 83.5188 192.674 83.3563 193.329 83.3563C193.903 83.3563 194.476 83.5188 194.967 83.925C195.213 84.1688 195.377 84.575 195.377 84.9V85.0625H197.833V84.9C197.751 83.925 197.342 83.0313 196.605 82.3813C195.704 81.65 194.558 81.2438 193.329 81.2438C192.101 81.2438 190.873 81.65 189.89 82.4625C189.235 83.0313 188.826 83.925 188.826 84.8188C188.826 86.525 190.136 87.9875 191.856 88.15C192.183 88.2313 192.674 88.2312 193.002 88.3125C193.493 88.3938 193.903 88.3938 194.312 88.475C194.885 88.5563 195.54 88.8813 195.54 89.6125C195.54 90.0188 195.377 90.3438 195.131 90.5875C194.64 90.9938 193.903 91.1562 193.248 91.1562C192.593 91.2375 191.937 90.9938 191.446 90.5875C191.119 90.2625 190.873 89.775 190.873 89.2875V89.125H188.416V89.2875C188.416 90.3438 188.908 91.3188 189.645 92.05C190.791 92.7 192.101 93.1875 193.329 93.1063ZM187.434 90.75H181.456V87.9875H186.779V85.7938H181.456V83.5188H187.434V81.325H179V92.8625H187.434V90.75ZM218.877 76.125H213.637V66.8625H211.262V78.4H218.877V76.125ZM205.858 74.0937L204.466 70.0312L203.074 74.0937H205.858ZM201.6 78.4H199.143L203.238 66.8625H205.694L209.788 78.4H207.25L206.513 76.2063H202.255L201.6 78.4ZM190.054 78.4H198.488V76.2063H192.511V73.4437H197.833V71.25H192.511V68.975H198.488V66.7812H190.054V78.4ZM181.374 71.9812H183.995C185.059 71.9812 185.632 71.4125 185.632 70.4375C185.632 69.5437 184.895 68.8938 183.995 68.8938H183.913H181.374V71.9812ZM181.456 78.4H179.082V66.8625H183.995C187.024 66.8625 188.089 68.8125 188.089 70.5188C188.171 71.9 187.352 73.2 186.042 73.7688L188.171 78.4813H185.55L183.667 74.2562H181.456V78.4ZM151.568 102.531C151.568 100.988 150.668 99.525 149.194 98.875C150.504 98.225 151.241 96.925 151.159 95.4625C151.159 94.0813 150.422 92.7 149.276 91.9688C148.129 91.3187 146.819 90.9938 145.509 91.075H139.04V107.244H145.509C147.065 107.406 148.539 107 149.849 106.188C150.995 105.294 151.65 103.913 151.568 102.531ZM134.618 87.0938C135.765 87.2563 136.829 87.3375 137.976 87.3375C141.415 87.3375 144.199 84.3313 144.199 80.675C144.199 78.075 142.643 76.2875 140.268 76.2875C138.467 76.2875 137.157 77.3438 137.157 78.725C137.075 79.7 137.812 80.5125 138.713 80.5938C138.794 80.5938 138.794 80.5938 138.876 80.5938C139.777 80.5938 140.514 79.9438 140.596 79.05V78.9688C140.596 78.5625 140.432 78.075 140.105 77.8313C140.186 77.8313 140.186 77.8313 140.268 77.8313C141.579 77.8313 142.479 78.9688 142.479 80.5125C142.479 83.0313 140.76 84.1688 136.993 84.1688C136.502 84.1688 135.847 84.1688 135.028 84.0875H134.7C134.127 84.0875 133.554 84.0875 133.144 84.0875C130.852 84.0875 129.378 84.575 128.313 85.7938C127.413 86.7688 126.839 88.15 126.839 89.45C126.757 91.3188 128.231 92.8625 130.115 92.8625H130.197C130.852 92.8625 131.507 92.7 132.08 92.2938C132.817 91.725 133.308 90.9125 133.308 89.9375C133.226 88.8813 132.326 88.0688 131.261 88.0688C131.179 88.0688 131.097 88.0688 131.015 88.0688C130.115 88.2313 129.46 89.0438 129.623 90.0188C129.623 90.1 129.623 90.1 129.623 90.1813C129.705 90.75 130.278 91.2375 130.852 91.2375C130.688 91.4 130.442 91.4813 130.278 91.4813C129.296 91.4813 128.559 90.6688 128.641 89.6938V89.6125C128.641 88.2313 129.787 87.175 131.179 87.175C131.261 87.175 131.343 87.175 131.425 87.175C133.472 87.175 134.946 88.8813 134.946 91.2375C134.946 94.65 131.916 97.0875 127.576 97.0875C122.745 97.0875 119.47 94.65 119.47 90.9938C119.388 89.2875 120.37 87.7438 121.926 87.0938C122.499 88.0688 123.482 88.7188 124.547 88.7188C125.365 88.8 126.102 88.2313 126.184 87.3375V87.2563C126.184 86.2 125.12 85.3875 123.564 85.3875C123.318 85.3875 123.073 85.3875 122.827 85.4688C122.499 84.8187 122.336 84.0875 122.336 83.3563C122.336 80.7563 124.055 78.8875 126.512 78.8875C126.757 78.8875 126.921 78.8875 127.167 78.9688C126.757 79.2938 126.512 79.7 126.512 80.1875C126.512 81.1625 127.249 81.8938 128.231 81.975C128.313 81.975 128.313 81.975 128.395 81.975C129.623 81.975 130.606 81.0813 130.606 79.8625C130.606 79.7813 130.606 79.7813 130.606 79.7C130.606 77.9938 129.132 76.8563 126.757 76.8563C123.4 76.775 120.616 79.375 120.534 82.625C120.534 82.7063 120.534 82.7875 120.534 82.8688C120.534 83.8438 120.698 84.8188 121.189 85.7125C118.405 86.7688 116.604 89.45 116.604 92.375C116.604 97.0062 120.452 100.175 126.184 100.175C132.244 100.175 136.665 96.6 136.665 91.6438C136.747 90.0188 136.01 88.3125 134.618 87.0938ZM115.457 76.775V83.7625H118.405V67.675H115.457V74.0125H108.825V67.675H105.877V83.7625H108.825V76.775H115.457ZM168.109 87.5C168.109 109.031 150.504 126.5 128.805 126.5C107.105 126.5 89.5 109.031 89.5 87.5C89.5 65.9688 107.105 48.5 128.805 48.5C150.586 48.5 168.109 65.9688 168.109 87.5ZM148.211 95.7063C148.211 94.1625 146.983 93.675 145.673 93.675H141.988V97.7375H145.673C147.065 97.6563 148.211 97.1688 148.211 95.7063ZM148.539 102.45C148.539 104.075 147.065 104.562 145.673 104.562H141.988V100.094H145.755C147.31 100.094 148.539 100.744 148.539 102.45Z" fill="#A6A6A6"/>
</g>
</svg>
