<svg width="36" height="36" viewBox="0 0 36 36" fill="none" xmlns="http://www.w3.org/2000/svg">
<path fill-rule="evenodd" clip-rule="evenodd" d="M7.5 3H28.5C30.1569 3 31.5 4.34315 31.5 6V28.7315C31.5 30.8093 29.4388 32.258 27.4838 31.5542L25.1412 30.7108C24.4092 30.4473 23.6034 30.4785 22.8939 30.7977L19.2311 32.446C18.4482 32.7983 17.5518 32.7983 16.7689 32.446L13.1061 30.7977C12.3966 30.4785 11.5908 30.4473 10.8588 30.7108L8.51616 31.5542C6.56117 32.258 4.5 30.8093 4.5 28.7315V6C4.5 4.34315 5.84315 3 7.5 3ZM12 9.375C11.3787 9.375 10.875 9.87868 10.875 10.5C10.875 11.1213 11.3787 11.625 12 11.625H18C18.6213 11.625 19.125 11.1213 19.125 10.5C19.125 9.87868 18.6213 9.375 18 9.375H12ZM12 15.375C11.3787 15.375 10.875 15.8787 10.875 16.5C10.875 17.1213 11.3787 17.625 12 17.625H24C24.6213 17.625 25.125 17.1213 25.125 16.5C25.125 15.8787 24.6213 15.375 24 15.375H12ZM12 21.375C11.3787 21.375 10.875 21.8787 10.875 22.5C10.875 23.1213 11.3787 23.625 12 23.625H24C24.6213 23.625 25.125 23.1213 25.125 22.5C25.125 21.8787 24.6213 21.375 24 21.375H12Z" fill="url(#paint0_linear_1_741)"/>
<defs>
<linearGradient id="paint0_linear_1_741" x1="18" y1="3" x2="18" y2="32.7102" gradientUnits="userSpaceOnUse">
<stop offset="0.32" stop-color="#F5F7F9"/>
<stop offset="1" stop-color="#F5F7F9" stop-opacity="0.7"/>
</linearGradient>
</defs>
</svg>
