<svg width="2214" height="1138" viewBox="0 0 2214 1138" fill="none" xmlns="http://www.w3.org/2000/svg">
<path d="M23 732.092L71.2457 788.889C119.491 845.686 215.983 959.279 310.656 1027.92C405.329 1096.56 498.183 1120.24 589.263 1100.04C680.342 1079.83 769.646 1015.73 857.175 907.754C944.704 799.781 1030.46 647.937 1121.1 616.862C1211.74 585.787 1307.26 675.481 1400.66 712.475C1494.05 749.47 1585.31 733.764 1673.18 634.12C1761.04 534.477 1845.51 350.895 1932.75 235.719C2019.99 120.543 2110 73.7714 2155 50.3857L2200 27" stroke="url(#paint0_linear_18_1071)" stroke-width="60"/>
<defs>
<linearGradient id="paint0_linear_18_1071" x1="2200.23" y1="27.0529" x2="-34.7867" y2="987.242" gradientUnits="userSpaceOnUse">
<stop offset="0.159336" stop-color="#08D54E"/>
<stop offset="1" stop-color="#08D54E" stop-opacity="0.5"/>
</linearGradient>
</defs>
</svg>
