<svg width="60" height="60" viewBox="0 0 60 60" fill="none" xmlns="http://www.w3.org/2000/svg">
<rect x="0.5" y="-0.5" width="59" height="59" rx="29.5" transform="matrix(1 0 0 -1 0 59)" stroke="white"/>
<path d="M38.9789 25.3136C38.7628 24.5103 38.1295 23.8771 37.3264 23.6608C35.8591 23.2593 29.99 23.2593 29.99 23.2593C29.99 23.2593 24.1211 23.2593 22.6539 23.6456C21.8662 23.8616 21.2174 24.5104 21.0014 25.3136C20.6152 26.7807 20.6152 29.8233 20.6152 29.8233C20.6152 29.8233 20.6152 32.8813 21.0014 34.3331C21.2177 35.1362 21.8507 35.7694 22.654 35.9857C24.1366 36.3873 29.9902 36.3873 29.9902 36.3873C29.9902 36.3873 35.8591 36.3873 37.3264 36.0011C38.1296 35.7849 38.7628 35.1517 38.9791 34.3485C39.3651 32.8813 39.3651 29.8388 39.3651 29.8388C39.3651 29.8388 39.3806 26.7807 38.9789 25.3136ZM28.1214 32.6342V27.0124L33.0019 29.8233L28.1214 32.6342Z" fill="white"/>
</svg>
